<svg width="85" height="17" viewBox="0 0 85 17" fill="none" xmlns="http://www.w3.org/2000/svg">
<path d="M3.64746 15H1.43262V2.20312H3.64746V15ZM16.5322 15H14.3086L8.60449 5.9209V15H6.38086V2.20312H8.60449L14.3262 11.3174V2.20312H16.5322V15ZM25.8486 11.7041C25.8486 11.1416 25.6494 10.708 25.251 10.4033C24.8584 10.0986 24.1465 9.79102 23.1152 9.48047C22.084 9.16992 21.2637 8.82422 20.6543 8.44336C19.4883 7.71094 18.9053 6.75586 18.9053 5.57812C18.9053 4.54688 19.3242 3.69727 20.1621 3.0293C21.0059 2.36133 22.0986 2.02734 23.4404 2.02734C24.3311 2.02734 25.125 2.19141 25.8223 2.51953C26.5195 2.84766 27.0674 3.31641 27.4658 3.92578C27.8643 4.5293 28.0635 5.2002 28.0635 5.93848H25.8486C25.8486 5.27051 25.6377 4.74902 25.2158 4.37402C24.7998 3.99316 24.2021 3.80273 23.4229 3.80273C22.6963 3.80273 22.1309 3.95801 21.7266 4.26855C21.3281 4.5791 21.1289 5.0127 21.1289 5.56934C21.1289 6.03809 21.3457 6.43066 21.7793 6.74707C22.2129 7.05762 22.9277 7.3623 23.9238 7.66113C24.9199 7.9541 25.7197 8.29102 26.3232 8.67188C26.9268 9.04688 27.3691 9.48047 27.6504 9.97266C27.9316 10.459 28.0723 11.0303 28.0723 11.6865C28.0723 12.7529 27.6621 13.6025 26.8418 14.2354C26.0273 14.8623 24.9199 15.1758 23.5195 15.1758C22.5938 15.1758 21.7412 15.0059 20.9619 14.666C20.1885 14.3203 19.585 13.8457 19.1514 13.2422C18.7236 12.6387 18.5098 11.9355 18.5098 11.1328H20.7334C20.7334 11.8594 20.9736 12.4219 21.4541 12.8203C21.9346 13.2188 22.623 13.418 23.5195 13.418C24.293 13.418 24.873 13.2627 25.2598 12.9521C25.6523 12.6357 25.8486 12.2197 25.8486 11.7041ZM32.2471 10.2451V15H30.0234V2.20312H34.9189C36.3486 2.20312 37.4824 2.5752 38.3203 3.31934C39.1641 4.06348 39.5859 5.04785 39.5859 6.27246C39.5859 7.52637 39.1729 8.50195 38.3467 9.19922C37.5264 9.89648 36.375 10.2451 34.8926 10.2451H32.2471ZM32.2471 8.46094H34.9189C35.71 8.46094 36.3135 8.27637 36.7295 7.90723C37.1455 7.53223 37.3535 6.99316 37.3535 6.29004C37.3535 5.59863 37.1426 5.04785 36.7207 4.6377C36.2988 4.22168 35.7188 4.00781 34.9805 3.99609H32.2471V8.46094ZM43.8838 15H41.6689V2.20312H43.8838V15ZM51.3193 10.0693H48.8408V15H46.6172V2.20312H51.1172C52.5938 2.20312 53.7334 2.53418 54.5361 3.19629C55.3389 3.8584 55.7402 4.81641 55.7402 6.07031C55.7402 6.92578 55.5322 7.64355 55.1162 8.22363C54.7061 8.79785 54.1318 9.24023 53.3936 9.55078L56.2676 14.8857V15H53.8857L51.3193 10.0693ZM48.8408 8.28516H51.126C51.876 8.28516 52.4619 8.09766 52.8838 7.72266C53.3057 7.3418 53.5166 6.82324 53.5166 6.16699C53.5166 5.48145 53.3203 4.95117 52.9277 4.57617C52.541 4.20117 51.9609 4.00781 51.1875 3.99609H48.8408V8.28516ZM65.3291 9.28711H60.0732V13.2246H66.2168V15H57.8496V2.20312H66.1553V3.99609H60.0732V7.5293H65.3291V9.28711Z" fill="white"/>
<path d="M69.6084 6.375L75.8584 10.0556L69.6084 13.7362L69.6084 6.375Z" fill="#C4C4C4"/>
<path d="M76.2751 2.125L76.2751 9.48622L70.0251 5.80561L76.2751 2.125Z" fill="white"/>
<path d="M83.3584 5.80566L77.1084 9.48627L77.1084 2.12506L83.3584 5.80566Z" fill="#C4C4C4"/>
</svg>
